<?xml version="1.0" encoding="UTF-8" standalone="no"?><svg width="148" height="37" viewBox="0 0 148 37" fill="none" xmlns="http://www.w3.org/2000/svg">
<path d="M10.4603 21.1503H7.10055V36.1061H2.18212V21.1503H0V17.2325H2.18212V16.2785C2.18212 13.9619 2.85176 12.2585 4.19105 11.1684C5.53034 10.0782 7.55082 9.56717 10.2525 9.6353V13.6553C9.07484 13.6326 8.25511 13.8257 7.79328 14.2345C7.33146 14.6433 7.10055 15.3814 7.10055 16.4489V17.2325H10.4603V21.1503Z" fill="black"/>
<path d="M16.062 14.984C15.2076 14.984 14.4918 14.7228 13.9145 14.2004C13.3603 13.6553 13.0832 12.9853 13.0832 12.1904C13.0832 11.3955 13.3603 10.7368 13.9145 10.2145C14.4918 9.66937 15.2076 9.39683 16.062 9.39683C16.9164 9.39683 17.6207 9.66937 18.1749 10.2145C18.7521 10.7368 19.0408 11.3955 19.0408 12.1904C19.0408 12.9853 18.7521 13.6553 18.1749 14.2004C17.6207 14.7228 16.9164 14.984 16.062 14.984ZM18.4519 17.2325V36.1061H13.6028V17.2325H18.4519Z" fill="black"/>
<path d="M33.8764 16.9599C36.1625 16.9599 38.0097 17.6753 39.4183 19.1062C40.8269 20.5143 41.5312 22.4903 41.5312 25.034V36.1061H36.682V25.6813C36.682 24.1823 36.301 23.0354 35.539 22.2404C34.777 21.4228 33.7379 21.014 32.4217 21.014C31.0824 21.014 30.0202 21.4228 29.2351 22.2404C28.4731 23.0354 28.0921 24.1823 28.0921 25.6813V36.1061H23.2429V17.2325H28.0921V19.5831C28.7386 18.7655 29.5584 18.1296 30.5513 17.6753C31.5673 17.1984 32.6757 16.9599 33.8764 16.9599Z" fill="black"/>
<path d="M50.9916 19.992C51.6151 19.0835 52.4694 18.3453 53.5547 17.7775C54.6631 17.2097 55.9216 16.9258 57.3301 16.9258C58.9696 16.9258 60.4474 17.3233 61.7636 18.1182C63.1029 18.9131 64.1536 20.0487 64.9156 21.525C65.7007 22.9786 66.0932 24.6706 66.0932 26.6011C66.0932 28.5317 65.7007 30.2464 64.9156 31.7454C64.1536 33.2217 63.1029 34.3686 61.7636 35.1863C60.4474 36.0039 58.9696 36.4127 57.3301 36.4127C55.8985 36.4127 54.64 36.1402 53.5547 35.5951C52.4925 35.0273 51.6382 34.3005 50.9916 33.4147V36.1061H46.1424V10.8958H50.9916V19.992ZM61.1402 26.6011C61.1402 25.4655 60.8977 24.4889 60.4128 23.6713C59.951 22.8309 59.3275 22.195 58.5424 21.7635C57.7804 21.332 56.9491 21.1162 56.0486 21.1162C55.1711 21.1162 54.3398 21.3433 53.5547 21.7976C52.7927 22.2291 52.1693 22.865 51.6843 23.7054C51.2225 24.5457 50.9916 25.5337 50.9916 26.6693C50.9916 27.8049 51.2225 28.7928 51.6843 29.6332C52.1693 30.4735 52.7927 31.1208 53.5547 31.5751C54.3398 32.0066 55.1711 32.2223 56.0486 32.2223C56.9491 32.2223 57.7804 31.9952 58.5424 31.541C59.3275 31.0867 59.951 30.4395 60.4128 29.5991C60.8977 28.7588 61.1402 27.7594 61.1402 26.6011Z" fill="black"/>
<path d="M87.455 26.2605C87.455 26.9418 87.4088 27.555 87.3164 28.1001H73.2885C73.404 29.4628 73.8889 30.5303 74.7433 31.3025C75.5976 32.0747 76.6483 32.4608 77.8952 32.4608C79.6963 32.4608 80.9779 31.7 81.7399 30.1783H86.9701C86.4159 31.9952 85.3537 33.4942 83.7835 34.6752C82.2133 35.8335 80.2851 36.4127 77.9991 36.4127C76.1518 36.4127 74.4893 36.0152 73.0114 35.2203C71.5567 34.4027 70.4137 33.2557 69.5824 31.7795C68.7742 30.3032 68.3701 28.5998 68.3701 26.6693C68.3701 24.716 68.7742 23.0013 69.5824 21.525C70.3906 20.0487 71.522 18.9131 72.9768 18.1182C74.4315 17.3233 76.1056 16.9258 77.9991 16.9258C79.8233 16.9258 81.4513 17.3119 82.8829 18.0841C84.3377 18.8564 85.4576 19.9579 86.2427 21.3887C87.0509 22.7969 87.455 24.4208 87.455 26.2605ZM82.4326 24.8977C82.4095 23.6713 81.9593 22.6947 81.0818 21.9679C80.2043 21.2184 79.1306 20.8437 77.8606 20.8437C76.6598 20.8437 75.6438 21.207 74.8125 21.9338C74.0043 22.6379 73.5079 23.6259 73.3232 24.8977H82.4326Z" fill="black"/>
<path d="M98.3374 36.4127C96.7672 36.4127 95.3587 36.1402 94.1117 35.5951C92.8648 35.0273 91.8719 34.2664 91.133 33.3125C90.4171 32.3586 90.0246 31.3025 89.9553 30.1442H94.8391C94.9315 30.871 95.2894 31.4728 95.9128 31.9498C96.5594 32.4268 97.356 32.6652 98.3028 32.6652C99.2264 32.6652 99.9423 32.4835 100.45 32.1201C100.981 31.7567 101.247 31.2912 101.247 30.7234C101.247 30.1101 100.924 29.6559 100.277 29.3606C99.6536 29.0427 98.6491 28.702 97.2637 28.3386C95.832 27.9979 94.6544 27.6459 93.7307 27.2825C92.8302 26.9191 92.0451 26.3627 91.3754 25.6132C90.7289 24.8637 90.4056 23.853 90.4056 22.5811C90.4056 21.5364 90.7058 20.5825 91.3061 19.7194C91.9296 18.8564 92.8071 18.175 93.9385 17.6753C95.0931 17.1757 96.4439 16.9258 97.991 16.9258C100.277 16.9258 102.101 17.4936 103.464 18.6292C104.826 19.7421 105.576 21.2525 105.715 23.1603H101.074C101.004 22.4108 100.681 21.8203 100.104 21.3887C99.5497 20.9345 98.7992 20.7074 97.8525 20.7074C96.975 20.7074 96.2938 20.8664 95.8089 21.1843C95.3471 21.5023 95.1162 21.9452 95.1162 22.513C95.1162 23.1489 95.4395 23.6372 96.086 23.9779C96.7326 24.2959 97.737 24.6252 99.0994 24.9659C100.485 25.3066 101.628 25.6586 102.528 26.022C103.429 26.3854 104.203 26.9532 104.849 27.7254C105.519 28.4749 105.865 29.4742 105.888 30.7234C105.888 31.8135 105.577 32.7901 104.953 33.6532C104.353 34.5163 103.475 35.1976 102.321 35.6973C101.189 36.1742 99.8614 36.4127 98.3374 36.4127Z" fill="black"/>
<path d="M115.515 21.1503V30.2805C115.515 30.9164 115.665 31.382 115.965 31.6773C116.288 31.9498 116.819 32.0861 117.558 32.0861H119.81V36.1061H116.761C112.674 36.1061 110.631 34.1529 110.631 30.2464V21.1503H108.345V17.2325H110.631V12.5651H115.515V17.2325H119.81V21.1503H115.515Z" fill="black"/>
<path d="M130.381 7.80438L148 0V5.18078L130.381 12.9852V7.80438Z" fill="#A5DFDC"/>
<path d="M130.381 12.9852L148 12.9856V17.5686H130.381L130.381 12.9852Z" fill="#A5DFDC"/>
</svg>
